<svg xmlns="http://www.w3.org/2000/svg" viewBox="0 0 512 512" fill="#FFFFFF"><path d="M125.478 239.685h32.631v32.631h-32.631zM125.478 76.532h32.631v32.631h-32.631zM92.847 207.054h32.631v32.631H92.847zM158.108 207.054h32.631v32.631h-32.631zM223.369 337.576H256v32.631h-32.631zM256 370.207h32.631v32.631H256z" /><path d="M92.847 174.424h32.631v32.631H92.847zM158.108 174.424h32.631v32.631h-32.631zM92.847 141.793h32.631v32.631H92.847zM92.847 109.162h32.631v32.631H92.847zM190.739 141.793h32.631v32.631h-32.631zM190.739 109.162h32.631v32.631h-32.631zM158.108 76.532h32.631v32.631h-32.631z" /><path d="M92.847 76.532h32.631v32.631H92.847zM386.522 402.838v-32.631h32.631v32.631z" /><path d="M386.523 435.468v-32.631h32.631v32.631zM288.631 435.467v-32.631h32.631v32.631z" /><path d="M321.261 435.468v-32.631h32.631v32.631zM288.63 370.206v-32.631h32.631v32.631zM321.261 337.576v-32.631h32.631v32.631z" /><path d="M353.892 337.576v-32.631h32.631v32.631zM386.522 370.207v-32.631h32.631v32.631zM353.892 435.468v-32.631h32.631v32.631zM190.739 304.946h32.631v32.631h-32.631zM158.108 272.315h32.631v32.631h-32.631zM190.739 239.685h32.631v32.631h-32.631zM256 304.946h32.631v32.631H256z" /><path d="M223.369 272.315H256v32.631h-32.631z"/></svg>